<svg width="31" height="44" viewBox="0 0 31 44" fill="none" xmlns="http://www.w3.org/2000/svg">
<path d="M16.5131 40.9637C12.9269 40.9503 8.26401 40.9293 6.15113 40.9171L2.30955 40.8948L2.16993 40.826C2.01654 40.7505 1.93634 40.6558 1.86209 40.4625C1.79816 40.2961 1.78931 39.5696 1.84908 39.3935C1.9142 39.2016 2.02611 39.0621 2.17301 38.9898C2.30417 38.9252 2.34615 38.922 3.23761 38.9078L4.16567 38.893L4.36204 38.7963C4.7974 38.5818 5.06215 38.07 4.97442 37.6125C4.90432 37.2469 4.6732 36.942 4.33888 36.774L4.16411 36.6862L3.23683 36.6702C2.353 36.6549 2.30377 36.6511 2.18615 36.589C1.91578 36.4463 1.82383 36.214 1.82383 35.6738C1.82383 35.1187 1.91629 34.8914 2.19836 34.753C2.33446 34.6862 2.36887 34.6835 3.26627 34.6688C4.30456 34.6517 4.31569 34.6496 4.59095 34.4199C5.22513 33.8907 5.10399 32.9085 4.35929 32.5416L4.16561 32.4462L3.2523 32.4303C2.24403 32.4128 2.2083 32.4067 2.03474 32.2216C1.87998 32.0565 1.83855 31.8862 1.83855 31.4153C1.83855 31.0082 1.8399 30.9998 1.93518 30.8062C2.0494 30.5743 2.15759 30.4946 2.40551 30.4598C2.57317 30.4362 14.2036 30.4686 22.3123 30.5151L26.5366 30.5394L26.8074 30.6161C27.338 30.7663 27.7844 31.0259 28.1658 31.4059C29.2669 32.503 29.3882 34.3126 28.4438 35.5521C28.3582 35.6646 28.2881 35.7649 28.2881 35.7752C28.2881 35.7855 28.3382 35.8554 28.3995 35.9305C28.7049 36.3048 28.9279 36.8064 29.0221 37.3309C29.0753 37.6273 29.0613 38.2417 28.9943 38.5485C28.8305 39.2993 28.4213 39.9516 27.8465 40.3784C27.4681 40.6594 27.1599 40.804 26.6844 40.9238L26.3907 40.9978L24.7121 40.9929C23.7889 40.9902 20.0993 40.9771 16.5131 40.9637ZM26.4988 38.8846C26.8251 38.7239 27.0462 38.4213 27.1116 38.0459C27.2081 37.4918 26.822 36.9116 26.2753 36.7891C26.1884 36.7696 23.6837 36.7491 19.1415 36.7306C8.80466 36.6886 6.75354 36.6873 6.76105 36.7229C6.7646 36.7396 6.79772 36.8639 6.83465 36.9989C6.89399 37.216 6.90158 37.3095 6.89999 37.8038C6.89815 38.3773 6.90008 38.3633 6.7523 38.871L6.73302 38.9372L9.0988 38.9415C10.4 38.9438 13.2794 38.9545 15.4975 38.9653C17.7156 38.976 21.0541 38.984 22.9164 38.983L26.3023 38.9813L26.4988 38.8846ZM26.4957 34.6612C26.7035 34.5591 26.9427 34.3089 27.0439 34.088C27.1913 33.7658 27.164 33.3425 26.9767 33.0497C26.9046 32.9371 26.7341 32.7695 26.5954 32.6749C26.3569 32.5123 26.8618 32.5235 18.3275 32.4914C14.0024 32.4751 9.63249 32.4573 8.61653 32.4517C7.19157 32.4439 6.76933 32.4497 6.76933 32.477C6.76933 32.4965 6.78818 32.5658 6.81121 32.6311C6.83424 32.6964 6.87587 32.8861 6.90373 33.0526C6.987 33.5507 6.94891 33.9928 6.76703 34.6393C6.75611 34.6781 6.96591 34.6845 8.50614 34.6916C9.46948 34.6961 12.4699 34.7106 15.1737 34.7238C17.8775 34.7371 21.4939 34.7467 23.2101 34.7451L26.3305 34.7423L26.4957 34.6612ZM15.9538 29.5728C14.5781 29.4361 13.6535 29.2462 12.4446 28.8522C9.83012 28.0001 7.50744 26.3987 5.77281 24.252C4.63627 22.8456 3.76615 21.1773 3.2802 19.4731C2.83333 17.9059 2.67446 16.4538 2.77884 14.8902C2.92743 12.6645 3.50097 10.7961 4.59243 8.98214C6.11699 6.44844 8.60158 4.46258 11.494 3.4659C12.6542 3.06613 13.8564 2.83659 15.2231 2.7539C16.7715 2.66022 18.628 2.91843 20.16 3.44052C21.6138 3.93598 22.9138 4.63563 24.0483 5.53319C25.4332 6.62882 26.5448 7.95027 27.3512 9.45958C27.4651 9.67278 27.5026 9.77606 27.5148 9.91116C27.5464 10.2598 27.3181 10.5429 26.8015 10.7954C26.3757 11.0036 26.0706 10.9812 25.8621 10.7263C25.8068 10.6589 25.6591 10.4248 25.5338 10.2062C23.968 7.47551 21.3212 5.60093 18.1149 4.95173C17.2968 4.78608 16.8664 4.74675 15.8802 4.74757C14.8952 4.74839 14.4125 4.79178 13.6418 4.94884C11.7333 5.33781 9.99557 6.15685 8.58091 7.33415C5.97508 9.50277 4.59312 12.603 4.68942 16.0643C4.74856 18.1899 5.40704 20.2512 6.60868 22.0723C7.79635 23.8722 9.41514 25.2951 11.3763 26.263C14.4745 27.7921 17.9051 28.0437 21.1832 26.9823C22.9191 26.4203 24.4906 25.5052 25.9065 24.2318C26.1037 24.0545 26.3062 23.8815 26.3566 23.8475C26.6552 23.6459 26.9388 23.6997 27.2812 24.023C27.5849 24.3096 27.7881 24.6634 27.7874 24.9039C27.7868 25.0884 27.6628 25.2792 27.3428 25.5881C26.6579 26.2491 25.7102 26.9656 24.8113 27.5019C22.8356 28.6806 20.581 29.3996 18.3103 29.5749C17.8499 29.6105 16.3189 29.6091 15.9538 29.5728ZM15.9685 26.6757C12.7448 26.3299 9.89624 24.7521 7.97151 22.2462C7.00939 20.9935 6.27919 19.3885 5.97603 17.86C5.80377 16.9915 5.78298 16.754 5.78529 15.6816C5.78766 14.5739 5.81905 14.2607 6.01834 13.3561C6.56524 10.8735 8.03376 8.74328 10.1693 7.33457C12.3631 5.88746 14.9422 5.33781 17.5434 5.76301C19.6079 6.10049 21.5312 7.0743 22.9739 8.5127C24.5755 10.1095 25.5323 12.1185 25.7555 14.3527C25.7996 14.7943 25.7923 15.7512 25.7413 16.2115C25.5608 17.8425 25.033 19.2013 24.0766 20.4974C23.2235 21.6535 21.7859 22.7256 20.3547 23.2729C19.2548 23.6935 18.2674 23.8553 16.9732 23.8271C16.2117 23.8105 15.955 23.7822 15.3152 23.6438C13.2343 23.1939 11.3175 21.9125 10.1633 20.1997C9.24007 18.8296 8.77332 17.3179 8.77157 15.6921C8.77025 14.4661 9.01893 13.3623 9.52665 12.3405C10.4143 10.5539 12.0605 9.24408 14.0616 8.7321C14.6959 8.56983 15.1394 8.51714 15.8655 8.51777C16.8157 8.51861 17.623 8.66983 18.4705 9.0057C20.4441 9.7879 21.9361 11.3957 22.5132 13.3619C23.0755 15.278 22.7526 17.3326 21.6595 18.793C20.8559 19.8666 19.6013 20.6255 18.2058 20.8821C17.9702 20.9254 17.7672 20.936 17.1902 20.9352C16.5128 20.9341 16.4458 20.9291 16.0887 20.8518C14.6454 20.5393 13.4594 19.7493 12.67 18.5745C12.2802 17.9945 12.0135 17.364 11.8709 16.6855C11.8014 16.3547 11.7927 16.2476 11.791 15.6963C11.7893 15.1283 11.7959 15.0459 11.8719 14.6807C12.028 13.9312 12.2726 13.3819 12.6692 12.8901C13.2132 12.2154 13.9699 11.7298 14.806 11.519C15.9654 11.2266 17.2108 11.4564 18.1605 12.1377C18.6541 12.4919 19.1088 13.0181 19.3724 13.5403C19.7624 14.313 19.8736 15.2321 19.6803 16.0871C19.551 16.6591 19.3568 17.0244 18.9855 17.3938C18.7653 17.6129 18.686 17.6698 18.4233 17.7973C18.0037 18.001 17.7723 18.0519 17.2785 18.049C16.7923 18.0463 16.5161 17.9823 16.0863 17.7728C15.0498 17.2678 14.5741 16.237 14.8506 15.0956C15.0168 14.4097 15.1705 14.2409 15.63 14.2401C15.8048 14.2398 15.9107 14.2603 16.1383 14.3388C16.4789 14.4563 16.6391 14.5597 16.7329 14.7228C16.8332 14.8973 16.8481 15.0462 16.7905 15.3005C16.6802 15.7871 16.7011 15.8703 16.9643 15.9928C17.2247 16.1141 17.5631 16.0668 17.6877 15.8917C17.7772 15.7659 17.8378 15.5112 17.8378 15.261C17.8378 14.4039 17.2319 13.6768 16.3244 13.445C15.6619 13.2757 14.8983 13.4689 14.3976 13.9325C13.8836 14.4084 13.6941 14.9342 13.7247 15.7994C13.7423 16.2955 13.8127 16.5848 14.022 17.021C14.4156 17.8416 15.1697 18.4964 16.0511 18.7829C16.4976 18.9281 16.7288 18.9625 17.249 18.961C17.6738 18.9598 17.7748 18.9497 18.0538 18.8807C18.7786 18.7016 19.3336 18.3959 19.826 17.9048C20.3474 17.3847 20.6587 16.7518 20.7995 15.9257C20.8725 15.4975 20.8437 14.6517 20.7426 14.2539C20.4803 13.2219 20.0247 12.4609 19.2636 11.7832C18.5863 11.1802 17.7668 10.7809 16.8075 10.5864C16.3596 10.4956 15.3941 10.4862 14.9529 10.5683C13.2901 10.8778 11.9465 11.8605 11.2302 13.2913C10.8723 14.0064 10.646 15.1338 10.6973 15.9465C10.8087 17.711 11.6144 19.2742 12.9812 20.3781C13.9953 21.197 15.1922 21.6845 16.5208 21.8197C17.0515 21.8737 17.3962 21.8738 17.8967 21.8204C19.4751 21.6518 20.8966 20.9849 21.9749 19.9069C22.6497 19.2322 23.1096 18.5225 23.4252 17.6686C24.3882 15.0632 23.729 12.1072 21.7259 10.0488C20.4869 8.77554 18.8915 7.9803 16.9841 7.6852C16.4964 7.60976 15.195 7.60986 14.7174 7.68538C13.7651 7.83597 13.0256 8.05993 12.2241 8.44047C10.1523 9.42409 8.5766 11.2734 8.00932 13.387C7.25322 16.2041 7.85648 18.9891 9.72424 21.3041C9.98421 21.6263 10.6802 22.3097 11.0529 22.6087C12.2436 23.5638 13.7527 24.2587 15.285 24.5575C17.9663 25.0803 20.7484 24.4759 22.9675 22.8885C23.3627 22.6058 23.6943 22.3288 24.084 21.956L24.3719 21.6805L24.1951 21.485C24.0963 21.3757 24.0348 21.286 24.0558 21.2817C24.1571 21.261 26.213 21.0738 26.2235 21.0843C26.2383 21.0991 26.0527 23.3614 26.0316 23.4236C26.0209 23.455 25.9706 23.4168 25.8571 23.2911L25.6976 23.1145L25.543 23.2811C25.2186 23.6307 24.5528 24.1953 24.0344 24.5603C23.4275 24.9876 23.0155 25.2286 22.3094 25.5693C21.1564 26.1257 20.0568 26.4542 18.7377 26.6363C18.1573 26.7164 16.5602 26.7392 15.9685 26.6757Z" fill="black"/>
<path d="M10.5747 40.9173C1.46307 40.8726 2.11358 40.9013 1.9408 40.5372C1.81011 40.2618 1.8225 39.4867 1.96123 39.2592C2.13161 38.9797 2.31287 38.9357 3.29297 38.9357C4.24462 38.9357 4.39722 38.8975 4.68461 38.5877C4.93352 38.3194 5.00388 38.1173 4.98217 37.733C4.95843 37.3128 4.79666 37.0285 4.45487 36.8063C4.23775 36.6652 4.2136 36.6618 3.25702 36.6362C2.37092 36.6125 2.26714 36.5999 2.13338 36.5005C1.92185 36.3433 1.84252 36.0621 1.86736 35.5573C1.90421 34.8085 2.05941 34.7026 3.12104 34.7022C4.14249 34.7017 4.38464 34.6507 4.66363 34.377C5.11127 33.9378 5.14646 33.2915 4.74807 32.8261C4.42151 32.4446 4.28232 32.4034 3.30772 32.4C2.3286 32.3966 2.14302 32.3536 1.9926 32.0952C1.83292 31.8208 1.8116 31.1843 1.95151 30.868C2.1533 30.4118 0.898907 30.4478 14.5029 30.5079L26.5494 30.5612L26.9271 30.6925C27.4554 30.8762 27.7495 31.0606 28.1485 31.4581C28.5453 31.8536 28.8786 32.4759 28.982 33.0147C29.1353 33.8128 28.9514 34.7353 28.5081 35.3921C28.3858 35.5733 28.2859 35.7451 28.286 35.7739C28.2862 35.8026 28.39 35.979 28.5167 36.1658C29.6276 37.8035 28.8563 40.1218 26.9708 40.8125L26.6014 40.9478L22.7079 40.9527C20.5665 40.9554 15.1065 40.9395 10.5747 40.9173ZM26.61 38.8502C27.357 38.3659 27.3032 37.2521 26.5137 36.8558L26.2744 36.7357L16.4976 36.7036L6.7207 36.6714L6.79599 36.9543C6.89634 37.3314 6.8956 38.2681 6.79469 38.6008C6.75189 38.7419 6.71661 38.8867 6.7163 38.9226C6.71585 38.9747 8.71846 38.988 16.5567 38.988H26.3976L26.61 38.8502ZM26.5126 34.6808C26.6946 34.5854 26.9586 34.304 27.0659 34.091C27.1782 33.8682 27.1713 33.4213 27.0516 33.1578C26.9987 33.0413 26.8557 32.8606 26.734 32.7564C26.5462 32.5957 26.4639 32.5627 26.1912 32.5387C25.4629 32.4747 6.85795 32.4001 6.79708 32.461C6.77954 32.4785 6.8056 32.721 6.855 32.9998C6.94658 33.5166 6.94288 33.5973 6.78491 34.532L6.7563 34.7013L8.89183 34.7156C10.0664 34.7234 14.4798 34.7354 18.6994 34.7423C25.2293 34.7529 26.3925 34.7437 26.5126 34.6808Z" fill="#767676"/>
<path d="M15.7308 29.5269C13.5617 29.2844 11.5021 28.6263 9.77651 27.6243C5.87007 25.3558 3.32063 21.4853 2.84597 17.1023C2.76518 16.3563 2.8082 14.4987 2.92371 13.7455C3.36243 10.8849 4.65019 8.38559 6.68782 6.44015C8.65054 4.56623 11.1732 3.33039 13.8593 2.92681C18.9671 2.15939 24.0314 4.37133 26.7833 8.57158C27.6704 9.92555 27.6753 10.3172 26.8104 10.753C26.2218 11.0496 26.0446 10.9683 25.5592 10.1786C24.801 8.94503 23.92 7.91878 22.9691 7.16164C21.1533 5.71578 18.8206 4.84403 16.4625 4.73006C13.1949 4.57214 10.0447 5.77003 7.78019 8.03159C6.23199 9.57776 5.23 11.5199 4.81869 13.7717C4.71977 14.3132 4.70437 14.5806 4.70584 15.7315C4.70768 17.1713 4.74444 17.4898 5.04103 18.6349C5.86643 21.8219 8.10373 24.5887 11.1269 26.1612C13.1502 27.2137 15.2543 27.6979 17.5077 27.6297C18.8614 27.5887 19.7834 27.4362 21.0781 27.0389C22.782 26.5162 24.2824 25.6638 25.8391 24.3341C26.5364 23.7384 26.6607 23.6863 26.9844 23.8537C27.2134 23.9721 27.595 24.4154 27.6963 24.6806L27.7897 24.9252L27.6522 25.1599C27.503 25.4144 26.8501 26.0234 26.1811 26.5319C24.1619 28.0668 21.8445 29.0368 19.2062 29.4513C18.5647 29.5521 16.3809 29.5996 15.7308 29.5269Z" fill="#767676"/>
<path d="M16.0196 26.6514C14.6799 26.5243 13.0698 26.0506 11.8134 25.4141C10.5623 24.7802 9.09871 23.5901 8.19682 22.4735C7.14791 21.1747 6.35987 19.5102 5.99522 17.8232C5.85977 17.1966 5.85384 17.1057 5.8554 15.6794C5.85697 14.2474 5.86258 14.1652 6.00079 13.5502C6.59063 10.9257 7.98217 8.86001 10.1346 7.41381C11.9567 6.18959 14.1177 5.56908 16.2275 5.66432C18.8602 5.78317 21.1887 6.78665 22.9703 8.5702C24.4053 10.0068 25.294 11.7361 25.6432 13.7718C25.7877 14.6145 25.7582 16.2544 25.5839 17.0643C25.1798 18.9427 24.1908 20.6235 22.8224 21.7575C21.6995 22.6881 20.5107 23.2857 19.128 23.6148C18.5869 23.7436 18.4749 23.7517 17.2205 23.7527C15.9572 23.7537 15.8577 23.7466 15.3103 23.6153C13.6827 23.2251 12.2915 22.4573 11.1581 21.3238C10.4879 20.6535 10.0428 20.0333 9.63918 19.2071C9.08152 18.0656 8.87123 17.2367 8.82378 15.993C8.7611 14.3498 9.14344 12.9014 9.97179 11.644C10.3375 11.0888 11.1631 10.2324 11.6953 9.85613C12.4746 9.30511 13.5443 8.85782 14.5809 8.64952C15.1403 8.53713 16.4562 8.53726 17.0898 8.64979C20.4651 9.24921 22.8916 12.2001 22.7412 15.5226C22.6716 17.0618 22.0958 18.393 21.0789 19.3661C20.565 19.8578 20.2096 20.1016 19.5564 20.4104C18.7199 20.8058 18.3458 20.8798 17.1943 20.8774C16.2645 20.8754 16.1714 20.8662 15.731 20.7321C13.7936 20.1425 12.4168 18.7298 11.9416 16.8442C11.8641 16.5364 11.8389 16.2573 11.8383 15.6992C11.837 14.5166 12.0989 13.6773 12.7077 12.9132C13.8628 11.4634 15.9181 11.0227 17.6124 11.8616C18.9149 12.5066 19.7308 13.8057 19.7281 15.2305C19.7263 16.1846 19.4981 16.8071 18.9491 17.3552C18.6815 17.6224 18.5244 17.7307 18.2396 17.8445C16.902 18.3789 15.2862 17.6606 14.9 16.3599C14.7425 15.8297 14.8303 14.9594 15.0826 14.5488C15.1379 14.4588 15.2543 14.3557 15.3412 14.3197C15.7073 14.168 16.5231 14.441 16.7163 14.7798C16.8068 14.9386 16.809 14.9833 16.7455 15.3744L16.6768 15.7974L16.8182 15.919C17.0999 16.1613 17.5124 16.138 17.7135 15.8686C17.8774 15.649 17.8928 15.0177 17.744 14.6213C17.5871 14.2035 17.1985 13.7916 16.7582 13.5761C16.4298 13.4155 16.3782 13.406 15.8355 13.406C15.3009 13.406 15.2367 13.4174 14.9185 13.5681C14.33 13.847 13.9445 14.2879 13.7937 14.8544C13.6922 15.2356 13.697 16.1608 13.8023 16.5192C13.9616 17.0612 14.2375 17.5106 14.6828 17.9536C15.407 18.674 16.156 18.9719 17.2429 18.9719C18.1503 18.9719 18.8929 18.7156 19.5873 18.1628C20.9913 17.0451 21.2772 14.7503 20.2406 12.9177C19.934 12.3758 19.1653 11.5999 18.5854 11.2472C18.0973 10.9503 17.4435 10.6954 16.8605 10.5747C16.3591 10.471 14.9856 10.5026 14.5421 10.6281C13.0047 11.0632 11.8041 12.0307 11.1858 13.3327C10.6148 14.5351 10.532 16.1734 10.974 17.5264C11.2638 18.4137 11.7189 19.1623 12.3949 19.8634C13.6531 21.1687 15.2924 21.8554 17.1682 21.863C18.2963 21.8675 19.2348 21.6605 20.1856 21.1972C22.6995 19.9724 24.0844 17.4953 23.8541 14.6356C23.5786 11.2136 20.9739 8.427 17.4074 7.73875C16.6115 7.58516 15.0339 7.58475 14.2822 7.73794C10.7965 8.44826 8.33049 10.9455 7.79071 14.3115C7.42523 16.5907 7.89112 18.6534 9.22802 20.6749C9.74242 21.4528 10.7996 22.5083 11.6023 23.0454C14.2158 24.7944 17.3925 25.227 20.3823 24.2411C21.3998 23.9056 22.7037 23.1823 23.5219 22.4994C23.9581 22.1353 24.3804 21.7335 24.3804 21.6824C24.3804 21.662 24.3195 21.573 24.2451 21.4846C24.1468 21.3677 24.129 21.3177 24.1798 21.3011C24.2757 21.2699 26.1637 21.1036 26.1846 21.1246C26.205 21.145 26.0641 22.95 26.0227 23.1984L25.9934 23.3746L25.8413 23.229L25.6893 23.0834L25.2308 23.5239C23.6047 25.0863 21.4482 26.149 19.1019 26.5442C18.3908 26.664 16.7521 26.721 16.0196 26.6514Z" fill="#767676"/>
</svg>
